name C:\Users\tom_v\My Drive\PostDoc\MusculoskeletalSpecialization\ResultsSprinting\Case_3\motion.mot
datacolumns 32
datarows 14
range 0.00000000 0.07420129
endheader 
time	pelvis_tilt	pelvis_list	pelvis_rotation	pelvis_tx	pelvis_ty	pelvis_tz	hip_flexion_r	hip_adduction_r	hip_rotation_r	knee_angle_r	ankle_angle_r	subtalar_angle_r	mtp_angle_r	hip_flexion_l	hip_adduction_l	hip_rotation_l	knee_angle_l	ankle_angle_l	subtalar_angle_l	mtp_angle_l	lumbar_extension	lumbar_bending	lumbar_rotation	arm_flex_r	arm_add_r	arm_rot_r	elbow_flex_r	arm_flex_l	arm_add_l	arm_rot_l	elbow_flex_l	
          0.00000000	        -11.62261026	         -3.63250272	         -0.40679700	          0.00000000	          0.90243029	         -0.00252086	         49.16481790	          6.07497313	         -0.45586280	        -44.07767777	          0.89997125	         -3.40015979	          0.73848057	         -3.80201841	         -2.15485335	          3.95701955	        -38.73653495	        -18.27322396	         11.91366144	         32.50205764	         -2.05477705	          6.02086535	         -5.22096727	          9.99982796	         -5.29972995	          5.94418256	         20.30619357	         13.10791452	         -2.41907473	          5.56372475	          0.00022332	
          0.00570779	        -11.57276456	         -3.57364215	         -0.29633914	          0.01988601	          0.90113506	         -0.00220723	         48.57053765	          6.24788598	          0.03857136	        -42.27757974	          0.60171946	         -3.76556553	          0.70275101	         -3.62397240	         -2.29131887	          3.88192401	        -40.00629626	        -18.76226911	         12.69067989	         30.12836115	         -1.98666044	          5.97690531	         -5.12202054	         10.06454793	         -5.31754642	          6.32068595	         19.57782991	         13.04533087	         -2.37446518	          4.62505778	          0.05722471	
          0.01141558	        -11.51573625	         -3.51174722	         -0.18027700	          0.03986425	          0.89953718	         -0.00187846	         47.94037700	          6.44499332	          0.55934592	        -40.82864197	          0.50573592	         -4.12498308	          0.65286066	         -3.34581039	         -2.41361621	          3.79042627	        -41.37420313	        -18.71265674	         13.33514394	         27.94943294	         -1.90224647	          5.92400115	         -5.00257687	         10.07222011	         -5.31667068	          6.47032934	         18.93338861	         12.95067886	         -2.33926879	          3.66138698	          0.19634253	
          0.01712337	        -11.45293051	         -3.44695893	         -0.05930974	          0.05991924	          0.89763315	         -0.00153824	         47.29138167	          6.66883516	          1.10509440	        -39.76643042	          0.65808570	         -4.49598569	          0.58151392	         -2.95564541	         -2.52299041	          3.67785562	        -42.85588586	        -18.32768156	         13.87651336	         25.94619163	         -1.80196011	          5.86397476	         -4.86275016	         10.02737599	         -5.29122860	          6.33674004	         18.36613861	         12.82583526	         -2.31315433	          2.71894258	          0.41409631	
          0.02283117	        -11.38539410	         -3.38081348	          0.06562344	          0.08003159	          0.89542246	         -0.00118703	         46.63032956	          6.92345795	          1.67312629	        -39.10626682	          1.08624236	         -4.88032589	          0.46056689	         -2.44317038	         -2.62105814	          3.54192538	        -44.47280345	        -17.69930350	         14.32728191	         24.08867691	         -1.68767365	          5.79929564	         -4.70375292	          9.94244116	         -5.23835217	          5.90658574	         17.85440116	         12.67376649	         -2.29623616	          1.83619640	          0.70491314	
          0.02853896	        -11.31447072	         -3.31556353	          0.19322762	          0.10018453	          0.89291110	         -0.00082326	         45.95007188	          7.21169267	          2.25649929	        -38.85894051	          1.88862064	         -5.26057752	          0.25583433	         -1.80152977	         -2.71020578	          3.38087658	        -46.24070546	        -16.87253092	         14.68887471	         22.36627886	         -1.56112074	          5.73232305	         -4.52683043	          9.83394852	         -5.15943183	          5.21269944	         17.36713187	         12.49782750	         -2.28865797	          1.04038283	          1.06149420	
          0.03424675	        -11.24208022	         -3.25053376	          0.32294617	          0.12036029	          0.89012524	         -0.00045331	         45.23491122	          7.52973190	          2.85694571	        -39.10252669	          3.17987285	         -5.71379384	          0.00176333	         -1.02969328	         -2.79049707	          3.19223075	        -48.15523299	        -15.89666981	         14.96556820	         20.76722461	         -1.42430908	          5.66266019	         -4.33310766	          9.71991201	         -5.06066899	          4.32640905	         16.86986561	         12.30235823	         -2.28972932	          0.34384716	          1.47632917	
          0.03995454	        -11.16924023	         -3.17973685	          0.45767153	          0.14052868	          0.88712526	         -0.00009034	         44.48228113	          7.86581877	          3.48477958	        -40.06144660	          5.07911960	         -6.25744049	          0.18063372	         -0.13376686	         -2.85928104	          2.97280500	        -50.18973588	        -14.81223682	         15.16337395	         19.28097861	         -1.28176557	          5.58360827	         -4.12726382	          9.62157483	         -4.94952573	          3.34493461	         16.32372724	         12.09409799	         -2.29946244	         -0.25777832	          1.94192864	
          0.04566233	        -11.09988309	         -3.11215438	          0.59088892	          0.16062034	          0.88403140	          0.00026292	         43.65053027	          8.21685138	          4.10080746	        -41.52070170	          7.60428465	         -6.74426336	          1.05389302	          0.88694463	         -2.92499349	          2.72704694	        -52.31955656	        -13.65482464	         15.28844050	         17.89968915	         -1.14171813	          5.50566130	         -3.90284155	          9.56592002	         -4.83846533	          2.37942511	         15.68630191	         11.88537938	         -2.31303617	         -0.78314456	          2.45225383	
          0.05137012	        -11.03812511	         -3.05253059	          0.71701362	          0.18053055	          0.88100482	          0.00060788	         42.68173895	          8.57018761	          4.69406137	        -42.76236849	         10.20091175	         -7.22087606	          2.11710627	          2.04031684	         -2.98380507	          2.47605519	        -54.52582649	        -12.45599438	         15.33570862	         16.61297645	         -1.01734881	          5.43241589	         -3.65866436	          9.58619029	         -4.73542292	          1.53765642	         14.91356073	         11.69080417	         -2.32815522	         -1.25837319	          3.00446834	
          0.05707792	        -10.98552141	         -2.99649599	          0.83186836	          0.20017047	          0.87815922	          0.00095854	         41.65476570	          8.92477451	          5.26425778	        -43.84589230	         12.66651670	         -7.72077133	          3.15627521	          3.32646493	         -3.02848871	          2.22651610	        -56.78458922	        -11.22819540	         15.30629838	         15.41440676	         -0.92114382	          5.35595628	         -3.39715950	          9.70765991	         -4.64116423	          0.89565678	         13.97703391	         11.52237473	         -2.34697635	         -1.70349131	          3.59467879	
          0.06278571	        -10.94255060	         -2.94002864	          0.93547511	          0.21950563	          0.87557070	          0.00131612	         40.62940222	          9.27167690	          5.79797706	        -44.84609067	         14.84409346	         -8.23609606	          4.21965195	          4.73529821	         -3.05472349	          1.98004366	        -59.05980505	         -9.99316462	         15.20169097	         14.29980700	         -0.85797070	          5.27033324	         -3.12197846	          9.93685133	         -4.55448964	          0.48092477	         12.87245013	         11.38568361	         -2.36964611	         -2.12566347	          4.21748317	
          0.06849350	        -10.90915872	         -2.87605495	          1.02765767	          0.23854558	          0.87328939	          0.00167364	         39.61921743	          9.59216557	          6.27980782	        -45.77081243	         16.62685045	         -8.74828979	          5.38739664	          6.24947760	         -3.05470561	          1.73468983	        -61.31096558	         -8.75896371	         15.02674216	         13.26174765	         -0.82683259	          5.16756044	         -2.83426506	         10.26444146	         -4.47180495	          0.27421425	         11.61794784	         11.28036918	         -2.39518300	         -2.52407039	          4.86842221	
          0.07420129	        -10.88500146	         -2.79922896	          1.10851585	          0.25732411	          0.87134615	          0.00202220	         38.60844169	          9.86909462	          6.70451662	        -46.59802247	         18.02730983	         -9.22564736	          6.69706011	          7.85001906	         -3.02322126	          1.48723216	        -63.50169235	         -7.52818952	         14.78472862	         12.29558416	         -0.82367770	          5.04235460	         -2.53477424	         10.67047753	         -4.38840829	          0.21917124	         10.25163308	         11.20181207	         -2.42228625	         -2.89463871	          5.54559321	
